<svg width="48" height="48" viewBox="0 0 48 48" fill="none" xmlns="http://www.w3.org/2000/svg">
<rect width="48" height="48" rx="24" fill="#08010D"/>
<rect x="27.7861" y="29.666" width="1.83333" height="7.16666" transform="rotate(90 27.7861 29.666)" fill="white"/>
<path fill-rule="evenodd" clip-rule="evenodd" d="M10.2861 18V29.6667H14.3695C17.5911 29.6667 20.2028 27.055 20.2028 23.8333C20.2028 20.6117 17.5911 18 14.3695 18H10.2861ZM12.7861 20.5L12.7861 27.1667H14.3695C16.2104 27.1667 17.7028 25.6743 17.7028 23.8333C17.7028 21.9924 16.2104 20.5 14.3695 20.5H12.7861Z" fill="white"/>
<path fill-rule="evenodd" clip-rule="evenodd" d="M29.6191 18V29.6667H33.7025C36.9241 29.6667 39.5358 27.055 39.5358 23.8333C39.5358 20.6117 36.9241 18 33.7025 18H29.6191ZM32.1191 20.5L32.1191 27.1667H33.7025C35.5434 27.1667 37.0358 25.6743 37.0358 23.8333C37.0358 21.9924 35.5434 20.5 33.7025 20.5H32.1191Z" fill="white"/>
</svg>
