<svg width="17" height="17" viewBox="0 0 17 17" fill="none" xmlns="http://www.w3.org/2000/svg">
<g clip-path="url(#clip0_74_224)">
<path d="M6.13393 9.40264C6.49915 9.40264 6.79521 9.10657 6.79521 8.74136C6.79521 8.37614 6.49915 8.08008 6.13393 8.08008C5.76872 8.08008 5.47266 8.37614 5.47266 8.74136C5.47266 9.10657 5.76872 9.40264 6.13393 9.40264Z" stroke="white" stroke-width="1.13362" stroke-linecap="round" stroke-linejoin="round"/>
<path d="M10.1007 9.40264C10.4659 9.40264 10.762 9.10657 10.762 8.74136C10.762 8.37614 10.4659 8.08008 10.1007 8.08008C9.73552 8.08008 9.43945 8.37614 9.43945 8.74136C9.43945 9.10657 9.73552 9.40264 10.1007 9.40264Z" stroke="white" stroke-width="1.13362" stroke-linecap="round" stroke-linejoin="round"/>
<path d="M5.14062 5.76549C7.4551 5.10421 8.77766 5.10421 11.0921 5.76549" stroke="white" stroke-width="1.13362" stroke-linecap="round" stroke-linejoin="round"/>
<path d="M4.81055 11.717C7.12502 12.3783 9.10886 12.3783 11.4233 11.717" stroke="white" stroke-width="1.13362" stroke-linecap="round" stroke-linejoin="round"/>
<path d="M10.4314 12.0476C10.4314 12.7088 11.4233 14.0314 11.7539 14.0314C12.7458 14.0314 13.6273 12.929 14.0684 12.0476C14.5095 10.9452 14.399 8.19031 13.0765 4.44285C12.113 3.77165 11.0926 3.55673 10.1007 3.45093L9.43945 5.10412" stroke="white" stroke-width="1.13362" stroke-linecap="round" stroke-linejoin="round"/>
<path d="M5.80312 12.0476C5.80312 12.7088 4.90643 14.0314 4.59166 14.0314C3.64669 14.0314 2.80753 12.929 2.38762 12.0476C1.96771 10.9452 2.07285 8.19031 3.33192 4.44285C4.24978 3.77165 5.1716 3.55673 6.13376 3.45093L6.79504 5.10412" stroke="white" stroke-width="1.13362" stroke-linecap="round" stroke-linejoin="round"/>
</g>
<defs>
<clipPath id="clip0_74_224">
<rect width="15.8707" height="15.8707" fill="white" transform="translate(0.181641 0.80603)"/>
</clipPath>
</defs>
</svg>
