<svg width="16" height="17" viewBox="0 0 16 17" fill="none" xmlns="http://www.w3.org/2000/svg">
<g clip-path="url(#clip0_74_221)">
<path d="M14.6689 3.45766C14.0077 3.78169 13.3596 3.91328 12.6851 4.11232C11.9438 3.27581 10.8448 3.22952 9.7887 3.62496C8.73263 4.02041 8.04094 4.9872 8.05615 6.09616V6.75744C5.9103 6.81233 3.9992 5.83496 2.76592 4.11232C2.76592 4.11232 0.000449222 9.02761 5.41103 11.3864C4.17312 12.211 2.93851 12.7671 1.44336 12.7089C3.63087 13.9012 6.01478 14.3112 8.07863 13.7121C10.446 13.0244 12.3915 11.2502 13.1381 8.59249C13.3608 7.78419 13.4714 6.94912 13.4667 6.11071C13.4654 5.94605 14.4653 4.27764 14.6689 3.457V3.45766Z" stroke="white" stroke-width="1.13362" stroke-linecap="round" stroke-linejoin="round"/>
</g>
<defs>
<clipPath id="clip0_74_221">
<rect width="15.8707" height="15.8707" fill="white" transform="translate(0.121094 0.80603)"/>
</clipPath>
</defs>
</svg>
